<svg xmlns="http://www.w3.org/2000/svg" viewBox="0 0 64 64" fill="none">
  <path fill="currentColor" d="M14 24c0-2.2 1.8-4 4-4h22c2.2 0 4 1.8 4 4v4.2c2.4.8 4 3 4 5.6V50c0 3.3-2.7 6-6 6H16c-3.3 0-6-2.7-6-6V33.8c0-2.6 1.6-4.8 4-5.6V24z"/>
  <path fill="currentColor" opacity=".92" d="M12 28.5c0-1.4 1.1-2.5 2.5-2.5h29c1.4 0 2.5 1.1 2.5 2.5 0 7.5-7.6 13.5-17 13.5S12 36 12 28.5z"/>
  <rect x="29" y="30" width="6" height="16" rx="1.5" fill="currentColor" opacity=".55"/>
  <rect x="27.5" y="42" width="9" height="5" rx="1.2" fill="currentColor" opacity=".75"/>
  <circle cx="48" cy="34" r="3.2" fill="none" stroke="currentColor" stroke-width="2.2"/>
  <path d="M50.8 32.2c2.2-3.5 5.5-5.8 9.2-6.2" stroke="currentColor" stroke-width="2.2" stroke-linecap="round" fill="none"/>
</svg>
